<svg id="PS3" xmlns="http://www.w3.org/2000/svg" viewBox="0 0 265.84 55.47"><defs><style>.cls-1{fill:#fff;}</style></defs><title>ps3-white</title><path class="cls-1" d="M27,40.64V92.39l11.71,3.72V52.7c0-2,.91-3.39,2.37-2.91,1.91.53,2.29,2.4,2.29,4.43V71.55c7.3,3.53,13,0,13-9.3,0-9.55-3.36-13.78-13.27-17.19A141,141,0,0,0,27,40.64Z" transform="translate(-0.09 -40.64)"/><path class="cls-1" d="M40.9,88.55l18.84-6.72c2.13-.76,2.46-1.85.73-2.41a12.68,12.68,0,0,0-7,.36L40.9,84.2v-7l.72-.25a43.47,43.47,0,0,1,8.73-1.85A37.2,37.2,0,0,1,66.59,77c5.53,1.74,6.15,4.32,4.75,6.08s-4.84,3-4.84,3L40.9,95.32Z" transform="translate(-0.09 -40.64)"/><path class="cls-1" d="M5.49,87.83c-5.67-1.59-6.62-4.91-4-6.83a27.75,27.75,0,0,1,6.45-3.1l16.79-6v6.8L12.62,83.05c-2.14.77-2.46,1.86-.73,2.42a12.72,12.72,0,0,0,7-.36L24.7,83V89.1l-1.15.19A38,38,0,0,1,5.49,87.83" transform="translate(-0.09 -40.64)"/><path class="cls-1" d="M65.33,93.27A2.26,2.26,0,0,1,66,91.66a2.28,2.28,0,0,1,3.89,1.61,2.29,2.29,0,0,1-2.28,2.28A2.21,2.21,0,0,1,66,94.88,2.24,2.24,0,0,1,65.33,93.27ZM67.61,96a2.74,2.74,0,0,0,1.94-4.67,2.67,2.67,0,0,0-1.94-.81,2.74,2.74,0,0,0-1.94,4.68,2.71,2.71,0,0,0,1.94.8" transform="translate(-0.09 -40.64)"/><path class="cls-1" d="M68.35,92.58a.39.39,0,0,1-.13.35.66.66,0,0,1-.4.1H67v-.87h.9a.67.67,0,0,1,.3.06A.36.36,0,0,1,68.35,92.58Zm.61,2a.19.19,0,0,1-.09-.14,1.13,1.13,0,0,1,0-.23l0-.39a.66.66,0,0,0-.11-.4.69.69,0,0,0-.18-.16.8.8,0,0,0,.23-.22.83.83,0,0,0,.12-.46.74.74,0,0,0-.45-.75,1.28,1.28,0,0,0-.58-.11H66.44v3H67V93.49h.83a.84.84,0,0,1,.33.05.33.33,0,0,1,.17.33l0,.48c0,.12,0,.2,0,.24a.42.42,0,0,0,0,.12l0,0H69v-.17l0,0" transform="translate(-0.09 -40.64)"/><polygon class="cls-1" points="260.01 43.91 258.74 43.91 258.74 43.47 261.75 43.47 261.75 43.91 260.5 43.91 260.5 47.31 260.01 47.31 260.01 43.91"/><polygon class="cls-1" points="263.79 47.31 262.75 44.2 262.75 47.31 262.24 47.31 262.24 43.47 262.94 43.47 264.04 46.74 265.15 43.47 265.84 43.47 265.84 47.31 265.34 47.31 265.34 44.2 264.29 47.31 263.79 47.31"/><path class="cls-1" d="M198.4,53.78h-21c-6.48,0-9.66,4-9.66,9.19V78.78c0,3.22-1.52,5.53-4.75,5.53H144.59a.24.24,0,0,0-.24.24v3.18a.25.25,0,0,0,.25.24h20.8c6.48,0,9.66-4,9.66-9.18V63c0-3.22,1.53-5.54,4.75-5.54H198.4a.24.24,0,0,0,.24-.24V54A.24.24,0,0,0,198.4,53.78Z" transform="translate(-0.09 -40.64)"/><path class="cls-1" d="M136.52,53.78H96.09a.24.24,0,0,0-.24.24v3.17a.24.24,0,0,0,.24.24h38c3.23,0,4.75,2.32,4.75,5.54s-1.52,5.53-4.75,5.53H104c-4.67,0-8.18,3.93-8.18,9.13v10.1h0a.24.24,0,0,0,.24.24h6.85a.25.25,0,0,0,.25-.24V77.63c0-3.22,1.85-5.47,4.52-5.47h28.81c6.49,0,9.66-4,9.66-9.18S143,53.78,136.52,53.78Z" transform="translate(-0.09 -40.64)"/><path class="cls-1" d="M253,70.45a.27.27,0,0,1,0-.38A8.91,8.91,0,0,0,256,63c0-5.21-3.17-9.2-9.65-9.2H206a.24.24,0,0,0-.24.24v3.17a.24.24,0,0,0,.24.24h38c3.22,0,4.75,2.32,4.75,5.54S247.18,68.5,244,68.5H206a.24.24,0,0,0-.24.24v3.17a.24.24,0,0,0,.24.24h38c4.19,0,4.75,4.11,4.75,6.2v.42c0,3.22-1.53,5.54-4.75,5.54H206a.24.24,0,0,0-.24.24v3.17A.24.24,0,0,0,206,88h40.44c6.48,0,9.65-4.31,9.65-9.2v-.41A10.67,10.67,0,0,0,253,70.45Z" transform="translate(-0.09 -40.64)"/></svg>