<svg id="PS4" xmlns="http://www.w3.org/2000/svg" viewBox="0 0 265.81 55.33"><defs><style>.cls-1{fill:#fff;}</style></defs><title>ps4-white</title><polygon class="cls-1" points="259.99 43.8 258.73 43.8 258.73 43.37 261.73 43.37 261.73 43.8 260.48 43.8 260.48 47.2 259.99 47.2 259.99 43.8"/><polygon class="cls-1" points="263.76 47.2 262.72 44.09 262.72 47.2 262.22 47.2 262.22 43.37 262.92 43.37 264.01 46.62 265.12 43.37 265.81 43.37 265.81 47.2 265.31 47.2 265.31 44.09 264.26 47.2 263.76 47.2"/><path class="cls-1" d="M202,53.66H179.73c-6.47,0-9.63,4-9.63,9.17V78.6c0,3.21-1.53,5.52-4.74,5.52h-21a.24.24,0,0,0-.24.24v3.17a.24.24,0,0,0,.24.24h23.38c6.47,0,9.64-4,9.64-9.16V62.83c0-3.22,1.52-5.53,4.73-5.53H202a.24.24,0,0,0,.24-.24V53.9a.24.24,0,0,0-.24-.24" transform="translate(-0.06 -40.56)"/><path class="cls-1" d="M136.16,53.67H95.82a.24.24,0,0,0-.24.24v3.17a.25.25,0,0,0,.25.24h37.91c3.21,0,4.73,2.31,4.73,5.52s-1.52,5.53-4.73,5.53h-30c-4.66,0-8.17,3.91-8.17,9.1V87.53a.23.23,0,0,0,.24.24h6.83a.24.24,0,0,0,.24-.24V77.46c0-3.21,1.86-5.46,4.51-5.46h28.75c6.47,0,9.63-4,9.63-9.16s-3.16-9.17-9.63-9.17" transform="translate(-0.06 -40.56)"/><path class="cls-1" d="M255,80.48h-6.83a.25.25,0,0,1-.25-.24V57.29c0-3.53-2.44-4.68-5.87-2.56L200.9,80c-1.62,1-2.16,2.11-1.77,2.94s1.22,1.21,3,1.21h38.18a.26.26,0,0,1,.22.18v3.22a.25.25,0,0,0,.24.25h6.86a.25.25,0,0,0,.24-.25V84.37a.25.25,0,0,1,.24-.25H255a.25.25,0,0,0,.25-.24V80.72a.25.25,0,0,0-.25-.24m-14.41-.26a.25.25,0,0,1-.24.25h-32c-.26,0-.39-.07-.43-.16s0-.26.24-.39L240,60.31c.22-.14.59-.11.59.32Z" transform="translate(-0.06 -40.56)"/><path class="cls-1" d="M26.88,40.56V92.18l11.68,3.71V52.59c0-2,.9-3.38,2.36-2.91,1.91.53,2.28,2.4,2.28,4.42V71.39c7.28,3.52,13,0,13-9.28C56.21,52.59,52.86,48.37,43,45A142.25,142.25,0,0,0,26.88,40.56Z" transform="translate(-0.06 -40.56)"/><path class="cls-1" d="M40.77,88.35l18.79-6.7c2.13-.76,2.46-1.85.73-2.41a12.74,12.74,0,0,0-7,.36L40.77,84V77l.72-.24A43.25,43.25,0,0,1,50.2,74.9a37.33,37.33,0,0,1,16.2,1.93c5.51,1.75,6.13,4.31,4.73,6.08s-4.83,3-4.83,3L40.77,95.11Z" transform="translate(-0.06 -40.56)"/><path class="cls-1" d="M5.45,87.63c-5.66-1.59-6.6-4.9-4-6.82a28,28,0,0,1,6.44-3.09l16.75-6v6.78l-12,4.32c-2.13.76-2.45,1.84-.73,2.41a12.73,12.73,0,0,0,7-.36l5.78-2.1V88.9l-1.15.18a37.82,37.82,0,0,1-18-1.45" transform="translate(-0.06 -40.56)"/><path class="cls-1" d="M65.14,93.06a2.26,2.26,0,0,1,.67-1.61,2.27,2.27,0,0,1,3.87,1.61,2.27,2.27,0,0,1-2.26,2.27,2.24,2.24,0,0,1-1.61-.66A2.26,2.26,0,0,1,65.14,93.06Zm2.28,2.74a2.75,2.75,0,0,0,2.73-2.74,2.74,2.74,0,0,0-.8-1.93,2.71,2.71,0,0,0-1.93-.81,2.74,2.74,0,0,0,0,5.48" transform="translate(-0.06 -40.56)"/><path class="cls-1" d="M68.16,92.37a.4.4,0,0,1-.14.35.74.74,0,0,1-.4.1h-.84V92h.9A.62.62,0,0,1,68,92,.37.37,0,0,1,68.16,92.37Zm.6,2s-.07-.06-.09-.13a1.21,1.21,0,0,1,0-.23l0-.39a.72.72,0,0,0-.11-.41.68.68,0,0,0-.18-.15.69.69,0,0,0,.23-.22.84.84,0,0,0,.12-.47.74.74,0,0,0-.45-.74,1.26,1.26,0,0,0-.58-.1H66.25v3h.53V93.28h.83a.91.91,0,0,1,.33,0,.35.35,0,0,1,.17.33l0,.48c0,.11,0,.19,0,.24a.36.36,0,0,0,0,.11l0,0h.59v-.18l0,0" transform="translate(-0.06 -40.56)"/></svg>