<svg id="PSP" xmlns="http://www.w3.org/2000/svg" viewBox="0 0 265.78 43.81"><defs><style>.cls-1{fill:#fff;}</style></defs><title>psp-white</title><path class="cls-1" d="M263.21,88.29a2.68,2.68,0,0,0,1.91-.78,2.69,2.69,0,1,0-4.6-1.91,2.68,2.68,0,0,0,2.69,2.69M261,85.6a2.24,2.24,0,0,1,2.24-2.23,2.24,2.24,0,1,1,0,4.48,2.22,2.22,0,0,1-1.58-.66A2.19,2.19,0,0,1,261,85.6" transform="translate(-0.13 -44.48)"/><path class="cls-1" d="M264.54,86.86a.19.19,0,0,1-.09-.13c0-.06,0-.13,0-.23v-.39a.71.71,0,0,0-.1-.4.72.72,0,0,0-.19-.14.76.76,0,0,0,.24-.23.83.83,0,0,0,.11-.45.73.73,0,0,0-.44-.73,1.38,1.38,0,0,0-.57-.11h-1.4v3h.52V85.82h.82a.87.87,0,0,1,.33.05.34.34,0,0,1,.17.31l0,.48a1.1,1.1,0,0,0,0,.24s0,.09,0,.11l0,0h.58v-.18h0m-.6-1.93a.39.39,0,0,1-.13.34.73.73,0,0,1-.39.09h-.84v-.84h.89a.84.84,0,0,1,.29,0,.37.37,0,0,1,.18.36" transform="translate(-0.13 -44.48)"/><path class="cls-1" d="M74.53,64H.12v23.9H4.54V68.39h74.4V44.48H.12V48.9H74.53Z" transform="translate(-0.13 -44.48)"/><path class="cls-1" d="M249.42,64H175v23.9h4.42V68.39h74.4V44.48H175V48.9h74.41Z" transform="translate(-0.13 -44.48)"/><path class="cls-1" d="M78.94,87.88h44.7v-39h40.13V44.48H119.08v39H78.94Z" transform="translate(-0.13 -44.48)"/></svg>