<svg id="PS_Vita" data-name="PS Vita" xmlns="http://www.w3.org/2000/svg" viewBox="0 0 264.68 47.25"><defs><style>.cls-1{fill:#fff;}</style></defs><title>psvita-white</title><path class="cls-1" d="M23.23,44.42V88.5l10,3.17v-37c0-1.73.77-2.89,2-2.48,1.62.45,1.94,2,1.94,3.77V70.75c6.22,3,11.11,0,11.11-7.93,0-8.13-2.86-11.74-11.31-14.64A117.86,117.86,0,0,0,23.23,44.42Z" transform="translate(-0.33 -44.42)"/><path class="cls-1" d="M35.1,85.23l16-5.72c1.82-.66,2.1-1.58.62-2.06a10.81,10.81,0,0,0-6,.3L35.1,81.52v-6l.61-.21a37.17,37.17,0,0,1,7.43-1.58A31.87,31.87,0,0,1,57,75.39c4.71,1.49,5.24,3.68,4,5.19s-4.12,2.59-4.12,2.59L35.1,91Z" transform="translate(-0.33 -44.42)"/><path class="cls-1" d="M4.93,84.62C.1,83.26-.71,80.43,1.5,78.79A23.6,23.6,0,0,1,7,76.15l14.3-5.08v5.79L11,80.54c-1.82.66-2.09,1.58-.62,2.06a10.84,10.84,0,0,0,6-.3l4.94-1.79v5.18l-1,.16A32.41,32.41,0,0,1,4.93,84.62" transform="translate(-0.33 -44.42)"/><path class="cls-1" d="M55.91,89.25a1.9,1.9,0,0,1,.57-1.37,1.93,1.93,0,0,1,2.74,0,1.9,1.9,0,0,1,.57,1.37,1.94,1.94,0,0,1-1.94,1.94,1.95,1.95,0,0,1-1.94-1.94Zm1.94,2.34a2.34,2.34,0,0,0,1.65-4,2.29,2.29,0,0,0-1.65-.69,2.34,2.34,0,0,0,0,4.68" transform="translate(-0.33 -44.42)"/><path class="cls-1" d="M58.48,88.66c0,.15,0,.25-.11.3A.66.66,0,0,1,58,89h-.72v-.73h.76a.57.57,0,0,1,.25,0A.32.32,0,0,1,58.48,88.66ZM59,90.34a.19.19,0,0,1-.08-.12s0-.1,0-.2v-.33a.57.57,0,0,0-.1-.34.47.47,0,0,0-.15-.13.91.91,0,0,0,.2-.19.72.72,0,0,0,.1-.4.64.64,0,0,0-.39-.64,1.17,1.17,0,0,0-.49-.08H56.85V90.5h.46V89.44H58a.71.71,0,0,1,.29,0,.29.29,0,0,1,.14.28l0,.41a1.8,1.8,0,0,0,0,.2.29.29,0,0,0,0,.1l0,0H59v-.15h0" transform="translate(-0.33 -44.42)"/><polygon class="cls-1" points="259.71 37.4 258.63 37.4 258.63 37.03 261.19 37.03 261.19 37.4 260.12 37.4 260.12 40.3 259.71 40.3 259.71 37.4"/><polygon class="cls-1" points="262.93 40.3 262.04 37.65 262.04 40.3 261.61 40.3 261.61 37.03 262.2 37.03 263.14 39.81 264.08 37.03 264.68 37.03 264.68 40.3 264.25 40.3 264.25 37.65 263.35 40.3 262.93 40.3"/><path class="cls-1" d="M81.9,75.81v8.7a.21.21,0,0,0,.22.21h5.66a.21.21,0,0,0,.21-.21v-8.7c0-2.53,1.32-4.3,3.2-4.3H106c4.7,0,7.61-3,7.61-8s-2.91-8-7.61-8H82.12a.21.21,0,0,0-.21.21V59a.21.21,0,0,0,.21.22h22c2.15,0,3.38,1.59,3.38,4.36s-1.23,4.36-3.38,4.36H88.39c-3.7,0-6.49,3.39-6.49,7.89" transform="translate(-0.33 -44.42)"/><path class="cls-1" d="M133.94,59.2h11.18a.22.22,0,0,0,.22-.22V55.82a.22.22,0,0,0-.22-.22h-13c-4.7,0-7.61,3-7.61,8V76.77c0,2.77-1.24,4.36-3.38,4.36H109.54a.21.21,0,0,0-.22.21v3.17a.21.21,0,0,0,.22.21H123c4.7,0,7.61-3,7.61-7.94V63.56c0-2.78,1.23-4.36,3.38-4.36" transform="translate(-0.33 -44.42)"/><path class="cls-1" d="M187.91,11.19h5.66a.22.22,0,0,1,.22.22V40.09a.21.21,0,0,1-.21.21h-5.66a.21.21,0,0,1-.21-.21V11.41A.21.21,0,0,1,187.91,11.19Z"/><path class="cls-1" d="M170.24,81.52,184,55.85a.15.15,0,0,0-.13-.25h-3.6a.38.38,0,0,0-.31.19L169,76.35c-.81,1.53-2.18,1.71-3,.19L154.84,55.79a.4.4,0,0,0-.31-.19h-6.3c-.15,0-.2.13-.13.27l13.77,25.65a6.31,6.31,0,0,0,2.76,2.89c1.62.74,3.38.2,4.8-1.63a10.55,10.55,0,0,0,.81-1.26" transform="translate(-0.33 -44.42)"/><path class="cls-1" d="M226.64,55.61H198.27a.21.21,0,0,0-.21.21V59a.21.21,0,0,0,.21.22H209a.38.38,0,0,1,.39.38v25a.21.21,0,0,0,.21.21h5.66a.21.21,0,0,0,.22-.21v-25a.38.38,0,0,1,.38-.38h10.76a.22.22,0,0,0,.21-.22V55.82a.22.22,0,0,0-.21-.21" transform="translate(-0.33 -44.42)"/><path class="cls-1" d="M257.3,84.47,243.53,58.82a6.38,6.38,0,0,0-2.76-2.9c-1.62-.74-3.38-.19-4.79,1.64a8,8,0,0,0-.81,1.26L221.39,84.48c-.07.13,0,.25.13.25h3.6a.39.39,0,0,0,.32-.19l2.94-5.49h0a.69.69,0,0,1,.56-.34h18.1a.71.71,0,0,1,.55.32v0l2.95,5.5a.39.39,0,0,0,.32.19h6.29c.16,0,.2-.12.13-.26m-12.21-9.33H230.91a.24.24,0,0,1-.23-.38h0L236.45,64c.82-1.52,2.18-1.7,3-.18l5.89,11c.08.2,0,.35-.25.35" transform="translate(-0.33 -44.42)"/></svg>